PathFileType  4	(X/Y/Z) C:\Users\antoi\Documents\MyRepositories\mobilecap\ResultsAnalysis
DataRate	CameraRate	NumFrames	NumMarkers	Units	OrigDataRate	OrigDataStartFrame	OrigNumFrames
100.0	100.0	4	51	mm	100.0	116	231
Frame#	Time	r_knee			r_shank_antsup			r_ankle			r_calc			r_5meta			r_toe			L_knee			L_shank_antsup			L_ankle			L_calc			L_5meta			L_toe			r_sh2			r_sh3			r_sh4			L_sh2			L_sh3			r_thigh1			r_thigh2			r_thigh3			r_thigh4			r_thigh5			L_thigh1			L_thigh2			L_thigh3			L_thigh4			r.ASIS			r.PSIS			L.ASIS			L.PSIS			C7			R_Shoulder			L_Shoulder			R_Sternum			L_Sternum			R_humerus			R_elbow_med			R_elbow_lat			R_forearm			R_wrist_radius			R_wrist_ulna			L_humerus			L_elbow_med			L_elbow_lat			L_forearm			L_wrist_radius			L_wrist_ulna			R_HJC			L_HJC			R_HJC_reg			L_HJC_reg			
		X1	Y1	Z1	X2	Y2	Z2	X3	Y3	Z3	X4	Y4	Z4	X5	Y5	Z5	X6	Y6	Z6	X7	Y7	Z7	X8	Y8	Z8	X9	Y9	Z9	X10	Y10	Z10	X11	Y11	Z11	X12	Y12	Z12	X13	Y13	Z13	X14	Y14	Z14	X15	Y15	Z15	X16	Y16	Z16	X17	Y17	Z17	X18	Y18	Z18	X19	Y19	Z19	X20	Y20	Z20	X21	Y21	Z21	X22	Y22	Z22	X23	Y23	Z23	X24	Y24	Z24	X25	Y25	Z25	X26	Y26	Z26	X27	Y27	Z27	X28	Y28	Z28	X29	Y29	Z29	X30	Y30	Z30	X31	Y31	Z31	X32	Y32	Z32	X33	Y33	Z33	X34	Y34	Z34	X35	Y35	Z35	X36	Y36	Z36	X37	Y37	Z37	X38	Y38	Z38	X39	Y39	Z39	X40	Y40	Z40	X41	Y41	Z41	X42	Y42	Z42	X43	Y43	Z43	X44	Y44	Z44	X45	Y45	Z45	X46	Y46	Z46	X47	Y47	Z47	X48	Y48	Z48	X49	Y49	Z49	X50	Y50	Z50	X51	Y51	Z51	

116	1.15000000	-51.47531	441.90015	-430.23390	-38.26563	339.43898	-450.91908	-296.04847	119.57655	-474.57531	-395.16213	75.94616	-519.71691	-199.11043	47.52038	-431.56752	-138.30679	70.44550	-497.42806	-82.86577	429.32139	-802.80628	-106.41506	360.73927	-815.92732	-341.07438	123.16526	-749.13390	-429.93166	76.79363	-686.53762	-253.98278	51.54025	-800.09281	-183.54851	71.58313	-746.02093	-112.80349	254.65519	-433.30565	-77.65446	383.52962	-405.58671	-169.35407	308.72589	-398.90076	-174.91389	417.12383	-806.84214	-242.60451	315.02347	-795.29295	-320.47896	611.28268	-416.48387	-217.57080	586.58981	-426.82334	-204.14863	527.27772	-393.80110	-345.82297	501.47842	-412.46101	-232.72458	482.46393	-409.71541	-304.24541	605.02836	-791.47982	-169.84190	565.64727	-791.74480	-335.86844	502.59183	-816.09079	-205.73198	460.12756	-816.53830	-377.08790	682.14449	-482.20952	-562.99009	688.97509	-538.37518	-396.34808	675.83668	-726.11839	-575.25949	686.80406	-645.16615	-249.24009	1172.99234	-603.96060	-186.95393	1077.84396	-450.25527	-227.43746	1092.46409	-773.56596	-168.81549	1038.29031	-586.85738	-175.99979	1036.21172	-639.66373	-196.23323	930.34524	-382.31510	-301.89125	732.60242	-377.74014	-263.40186	758.27723	-305.37599	-179.29359	603.45590	-292.27809	-124.59001	531.13252	-305.94766	-161.94999	520.60634	-281.37290	-278.66134	983.94082	-854.96701	-371.73676	750.52457	-811.16002	-356.95677	770.34773	-893.11028	-300.21638	717.73245	-915.77517	-193.73277	578.58409	-920.09440	-226.52550	553.88097	-927.65161	-454.65146	563.29614	-492.12930	-474.97448	564.27773	-698.08769	-433.83501	599.08308	-508.46103	-452.26920	595.82098	-668.90728	
117	1.16000000	-48.13405	440.75777	-428.69788	-36.18062	337.01830	-451.08421	-295.77048	119.66905	-474.81474	-395.10452	76.09476	-519.97590	-199.10972	47.56425	-431.63091	-138.27008	70.36041	-497.54398	-80.18616	426.94362	-802.16136	-104.54539	358.87696	-815.00486	-340.78337	123.34396	-748.63106	-429.76835	76.84048	-686.33808	-254.00442	51.57061	-800.06031	-183.56170	71.51520	-745.98288	-111.99556	252.88636	-434.74997	-75.87995	379.93358	-405.78262	-166.79052	306.55496	-398.56351	-172.99097	415.78152	-807.10834	-240.92521	313.59103	-794.55603	-321.05700	604.85713	-416.51146	-218.32759	581.24505	-426.55305	-203.16327	522.68057	-393.97739	-344.34554	494.48256	-411.92499	-230.63545	476.84411	-409.41334	-303.92636	598.10233	-791.71898	-169.15194	560.54002	-791.27846	-333.82852	494.96554	-815.83479	-203.06503	454.56377	-815.88635	-375.65051	672.77901	-482.64417	-561.76806	679.83605	-539.04949	-395.19912	665.83263	-726.37485	-573.95166	677.48888	-645.86019	-244.77651	1160.94959	-604.00601	-182.01851	1065.74052	-451.08637	-221.83693	1080.43321	-773.50763	-164.31045	1026.05343	-587.11810	-171.49868	1023.96266	-639.62512	-182.87855	919.67604	-382.74443	-273.29285	714.88822	-380.00628	-236.63093	743.06394	-307.77924	-141.41867	594.34674	-295.83935	-82.64538	525.36713	-310.71157	-118.79257	512.45691	-285.56544	-268.48624	972.47823	-857.20046	-348.75957	733.44755	-818.45426	-333.08487	754.99177	-899.60204	-272.60988	705.69943	-920.80509	-158.43331	572.45741	-922.87879	-189.76435	546.45319	-932.38018	-453.69511	554.07558	-492.30750	-473.93754	554.54149	-698.27501	-432.77075	589.69550	-508.74545	-451.06322	586.17149	-669.11122	
118	1.17000000	-46.60168	437.44477	-428.70299	-34.81989	334.37195	-451.52913	-295.60097	119.67721	-474.94406	-395.12094	76.10413	-520.11465	-199.15530	47.56001	-431.66980	-138.28310	70.29762	-497.64536	-77.85163	424.68225	-801.33393	-103.15077	357.43565	-813.99086	-340.60005	123.55925	-748.12166	-429.66205	76.92051	-685.95387	-254.02017	51.62819	-800.00857	-183.60384	71.50141	-745.77440	-111.01045	250.97519	-436.07591	-74.38015	377.15484	-405.49408	-164.55181	304.56583	-398.58513	-172.04790	414.60806	-807.34761	-239.58458	312.28819	-793.23177	-321.51672	599.00526	-416.45689	-218.46353	577.04222	-426.73395	-202.43812	518.90992	-393.84525	-343.12327	488.57796	-411.63445	-229.02692	471.97727	-409.65402	-303.89901	592.92272	-791.01417	-168.67715	556.97710	-789.82172	-332.09678	489.38671	-815.67753	-200.74045	450.65091	-814.86533	-374.44972	665.01113	-482.73982	-560.74028	671.61192	-539.58524	-394.06906	657.31915	-726.31798	-572.77022	669.40732	-646.23335	-240.83896	1150.09471	-604.08275	-177.44155	1054.82109	-451.83646	-216.90277	1069.70195	-773.57749	-160.14442	1015.11302	-587.29572	-167.39215	1013.10117	-639.52545	-169.99836	910.54338	-383.47643	-244.45198	700.43972	-383.50004	-210.54359	730.35999	-310.65679	-105.11408	588.36702	-299.77364	-42.16463	523.07104	-315.47321	-77.50701	508.18520	-289.80361	-258.65691	962.19136	-858.97224	-325.27978	718.63100	-825.46020	-309.16227	741.79119	-905.85746	-245.40181	695.88869	-925.42327	-124.40652	568.57669	-925.28338	-154.22881	541.32380	-936.73417	-452.64750	546.19152	-492.22912	-472.67532	546.15284	-698.21841	-431.49191	581.29507	-508.99292	-449.57479	577.98157	-669.30422	
119	1.18000000	-45.69757	433.68040	-429.77957	-33.60339	332.20370	-452.11559	-295.57550	119.61504	-474.98802	-395.17880	76.04845	-520.12550	-199.19413	47.51072	-431.64893	-138.33287	70.26203	-497.69466	-75.70460	422.67203	-799.71325	-101.99754	356.62627	-813.01440	-340.49795	123.72630	-747.52711	-429.52012	77.00658	-685.56411	-254.02750	51.71867	-799.94077	-183.61284	71.51844	-745.49765	-109.27206	248.87163	-436.40201	-72.54186	375.16666	-406.11383	-163.06485	302.75134	-399.32720	-171.05638	413.77792	-806.34081	-238.41770	311.62158	-791.73802	-321.57873	593.79250	-416.62234	-218.07713	573.47044	-427.23476	-201.84881	515.33378	-393.88007	-342.03114	483.23077	-412.04104	-227.75389	467.77310	-410.08282	-304.36391	589.10920	-789.57190	-168.22222	554.82520	-787.65019	-330.73013	485.63673	-815.66549	-198.83794	448.34724	-814.19630	-373.29259	658.59589	-482.74895	-559.62821	664.42092	-539.95814	-392.82823	650.54563	-726.18815	-571.77992	662.53394	-646.23698	-237.37870	1140.58518	-604.37067	-173.03998	1045.22930	-452.65532	-212.76034	1060.22897	-773.53842	-156.31612	1005.52553	-587.61770	-163.72545	1003.71695	-639.64598	-157.61604	903.13766	-385.01977	-215.81217	689.47197	-387.74618	-185.14924	720.46531	-313.63944	-70.59089	585.64333	-303.94028	-3.71567	524.29452	-320.32956	-38.12656	507.44893	-294.27804	-248.82407	953.46520	-860.43745	-301.83268	706.12414	-832.15765	-285.19067	731.05294	-911.44164	-218.61131	688.56737	-929.51962	-91.89975	566.83495	-927.14689	-120.00705	538.61417	-940.21538	-451.29922	539.50190	-492.20239	-471.19679	539.28383	-698.20456	-429.75580	574.16561	-509.17936	-448.07391	571.32170	-669.38383	
